#!OML:ASF E:/inclinewalkrobotboard/Project1/Captureday1/Session1/subject1.ASF
:FULLY-SPECIFIED
:DEGREES
276
root 0 0 0 -1.6312393527767572 -0.28388021794786145 0.17868846985766185
lowerback 9.363395016858991 -1.4132159023984272 -1.7381012699937795
upperback 0.13551702001264515 -2.0375534253094933 1.6164107403371615
thorax -5.046817077868092 -0.966838119505433 2.926796033102442
lowerneck -17.97952823447382 -1.876972713304893 -1.6727427877440033
upperneck 15.996026997365286 -1.913883922748318 -1.1484979744770063
head 7.819418111137546 -1.1264623508812672 -0.361078036475918
rclavicle 1.8122175625038955E-15 8.629893563632172E-17
rhumerus -33.375539548620864 -30.330993526565443 -81.39962800365991
rradius 16.29935577068096
rwrist 16.54278022919062
rhand -20.087288518211366 25.75594003184905
rfingers 7.125019999999986
rthumb 6.288359597082246 -4.361722609984064
lclavicle 1.4854011174009102E-15 -7.988116467417092E-16
lhumerus -31.3789978384009 -3.8192092760898593 80.63794241638571
lradius 35.000278539449454
lwrist 12.14509876007013
lhand -28.980651358948236 26.901578543229782
lfingers 7.125020000000009
lthumb -2.37218955578464 56.963956306667484
rfemur -19.53202360298222 4.593030900739111 24.30446627676317
rtibia 38.03885392912419
rfoot -8.131721445921546 -8.224577442857365
rtoes 2.2948657430501287
lfemur 5.276196916987867 -5.376262886744768 -23.635088404025552
ltibia 28.800100980438508
lfoot -13.276045007767129 -1.2490020066809495
ltoes -5.814815151445636
277
root 0 0 0 -1.7630031970729632 -0.4194088777520617 0.0674249006458596
lowerback 9.728165762094307 -1.3989336376126942 -1.674933775086971
upperback 0.13457053766492505 -1.9997971009904665 1.6595384888954139
thorax -5.251689667767198 -0.9509684588743332 2.9252325465924027
lowerneck -17.956826212803932 -1.8773513367942434 -1.5322489467126932
upperneck 15.90202764449492 -1.90454941829908 -1.3070288002164012
head 7.807252492738394 -1.128258393503941 -0.4356340999431331
rclavicle 1.5756889998722514E-15 -4.313270437519039E-17
rhumerus -33.280630225518166 -30.25324468381469 -81.38693751843445
rradius 16.41305384979868
rwrist 16.671817745201352
rhand -20.080513804615478 25.777100154638703
rfingers 7.125019999999985
rthumb 6.295113851245956 -4.338529755659614
lclavicle 1.4508820590340568E-15 -8.489356486806395E-16
lhumerus -31.174171111474557 -3.7138311830017736 80.9830193057807
lradius 34.49258873601067
lwrist 11.726159281603508
lhand -28.87843175346418 26.74730830594293
lfingers 7.125020000000011
lthumb -2.270161820231724 56.795353077381705
rfemur -18.880457022083267 4.657390117672001 24.671803936295472
rtibia 38.355625616645725
rfoot -8.174923647101673 -8.063862589868428
rtoes 2.6086529612351295
lfemur 3.449317155306697 -4.546953576551017 -23.08414859158315
ltibia 30.600914278851537
lfoot -11.713703722265343 -2.189068225872853
ltoes -5.715729145766687
278
root 0 0 0 -2.0331154640064444 -0.6709742246351109 -0.028120361426637874
lowerback 10.269246148707268 -1.3606137959900577 -1.637074608789842
upperback 0.12064364968462316 -1.9297696221761946 1.710725806603096
thorax -5.567428251445805 -0.9178598887847047 2.9428057946251065
lowerneck -17.899749422580914 -1.8951338097877866 -1.3523247969685646
upperneck 15.687268188833455 -1.91607461516723 -1.4744964709426196
head 7.761587421760666 -1.1412390137633182 -0.5210464246917967
rclavicle 1.3386202689539223E-15 -3.694126847714324E-16
rhumerus -33.08927465384942 -30.100690223743047 -81.34638963408912
rradius 16.53470920210031
rwrist 16.802824963568145
rhand -20.044205194958586 25.860834201099856
rfingers 7.125019999999985
rthumb 6.329968148566576 -4.249432872501785
lclavicle 1.4036445158175333E-15 -1.0537355526409926E-15
lhumerus -30.964150890482962 -3.6273690826201554 81.34056362328913
lradius 34.02656030311104
lwrist 11.325217708388092
lhand -28.769704461130885 26.554773775500472
lfingers 7.125020000000013
lthumb -2.161609847552013 56.589179158563326
rfemur -18.156533874725806 4.748673254472877 25.208287851771946
rtibia 38.92889168189268
rfoot -8.235779576344022 -7.890984697720459
rtoes 3.0374779494349524
lfemur 0.37163835332687345 -3.161745983755407 -22.252518533322217
ltibia 33.281124454249486
lfoot -9.265225201838609 -3.6357102202283316
ltoes -5.499978365016581
279
root 0 0 0 -2.453515723325628 -1.0703881482895454 -0.1577151655988791
lowerback 11.026631431888582 -1.2917073759717694 -1.5864865696979569
upperback 0.09309125655469033 -1.8117064024220915 1.7812435468830237
thorax -6.017740899385409 -0.8609458375472985 2.966771145421801
lowerneck -17.799202862547517 -1.930655017219508 -1.1025742979509308
upperneck 15.394747449201686 -1.949395245965803 -1.6826257415045174
head 7.698222194264503 -1.16579234770023 -0.63332078686803
rclavicle 1.1150736517102468E-15 -9.56871728636046E-16
rhumerus -32.71837994564159 -29.84661393553842 -81.22092415637492
rradius 16.696161701102255
rwrist 16.895126195273512
rhand -19.958391553767427 26.041857749654966
rfingers 7.125019999999985
rthumb 6.411754557027291 -4.057434628830627
lclavicle 1.3556220951916397E-15 -1.4728148432206813E-15
lhumerus -30.80744716869956 -3.5441099132084766 81.67763947897511
lradius 33.640766721339105
lwrist 10.9576123503988
lhand -28.644117508378827 26.30583905866029
lfingers 7.1250200000000135
lthumb -2.0368569885581014 56.32699564639523
rfemur -17.11202705830868 4.901395521560916 26.019736135127644
rtibia 39.69263304940045
rfoot -8.384979795203392 -7.660071232956653
rtoes 3.6216115852634587
lfemur -5.1139679760903505 -0.8306745415666485 -20.878159527822476
ltibia 37.40927906058458
lfoot -5.263003833394389 -5.9003233343739705
ltoes -4.969167848631795
